<?xml version="1.0" standalone="no"?>
<!DOCTYPE svg PUBLIC "-//W3C//DTD SVG 20010904//EN"
 "http://www.w3.org/TR/2001/REC-SVG-20010904/DTD/svg10.dtd">
<svg version="1.0" xmlns="http://www.w3.org/2000/svg"
 width="512.000000pt" height="512.000000pt" viewBox="0 0 512.000000 512.000000"
 preserveAspectRatio="xMidYMid meet">

<g transform="translate(0.000000,512.000000) scale(0.100000,-0.100000)"
fill="#000000" stroke="none">
<path d="M2460 4909 c-255 -17 -480 -117 -637 -283 -81 -84 -134 -173 -159
-263 l-17 -63 -692 0 c-786 0 -756 3 -847 -78 -27 -25 -61 -68 -76 -96 l-27
-51 0 -1820 0 -1820 28 -57 c33 -67 80 -111 157 -147 l55 -26 2315 0 2315 0
55 26 c77 36 124 80 157 147 l28 57 0 1820 0 1820 -27 51 c-15 28 -49 71 -76
96 -91 81 -61 78 -847 78 l-692 0 -17 63 c-32 114 -109 228 -217 322 -196 168
-464 245 -779 224z m260 -213 c193 -31 354 -116 456 -237 35 -42 84 -129 84
-149 0 -7 -225 -10 -700 -10 -475 0 -700 3 -700 10 0 6 11 32 24 58 125 247
481 386 836 328z m2123 -607 c77 -21 72 46 72 -964 0 -851 -1 -902 -18 -928
-10 -16 -29 -32 -43 -37 -15 -6 -370 -10 -905 -10 l-879 0 0 24 c0 92 -87 214
-182 257 -52 23 -60 24 -328 24 -268 0 -276 -1 -328 -24 -97 -44 -182 -164
-182 -258 l0 -23 -879 0 c-535 0 -890 4 -905 10 -14 5 -33 21 -43 37 -17 26
-18 77 -18 928 0 842 1 903 18 928 9 14 32 31 50 36 47 13 4521 14 4570 0z
m-2029 -1850 c43 -20 56 -65 56 -188 0 -206 -7 -211 -310 -211 -303 0 -310 5
-310 205 0 127 13 174 53 193 31 15 478 16 511 1z m-776 -294 c6 -2 12 -16 12
-29 0 -94 95 -218 195 -255 51 -19 77 -21 315 -21 238 0 264 2 315 21 100 37
195 161 195 255 0 13 6 27 13 29 6 3 423 6 925 7 l912 3 0 -715 c0 -459 -4
-728 -10 -752 -6 -20 -22 -46 -37 -58 l-26 -20 -2287 0 -2287 0 -26 20 c-15
12 -31 38 -37 58 -6 24 -10 293 -10 752 l0 715 912 -3 c502 -1 919 -4 926 -7z"/>
</g>
</svg>
